<mxfile host="Electron" agent="Mozilla/5.0 (Windows NT 10.0; Win64; x64) AppleWebKit/537.36 (KHTML, like Gecko) draw.io/26.0.9 Chrome/128.0.6613.186 Electron/32.2.5 Safari/537.36" version="26.0.9">
  <diagram name="Página-1" id="X38vlEP--GgiKuMVQSxY">
    <mxGraphModel dx="1105" dy="654" grid="1" gridSize="10" guides="1" tooltips="1" connect="1" arrows="1" fold="1" page="1" pageScale="1" pageWidth="3300" pageHeight="4681" math="0" shadow="0">
      <root>
        <mxCell id="0" />
        <mxCell id="1" parent="0" />
        <mxCell id="Ibja5pGS4ZkIBvLENi_X-5" value="" style="rounded=0;whiteSpace=wrap;html=1;fillColor=#F0A30A;strokeColor=default;fontSize=16;fontColor=#000000;" vertex="1" parent="1">
          <mxGeometry x="260" y="390" width="340" height="150" as="geometry" />
        </mxCell>
        <mxCell id="Ibja5pGS4ZkIBvLENi_X-16" style="edgeStyle=orthogonalEdgeStyle;rounded=0;orthogonalLoop=1;jettySize=auto;html=1;exitX=0;exitY=0.5;exitDx=0;exitDy=0;entryX=1;entryY=0.5;entryDx=0;entryDy=0;startArrow=classic;startFill=1;" edge="1" parent="1" source="9miJ6_X61tV17TmGhQe3-1" target="9miJ6_X61tV17TmGhQe3-2">
          <mxGeometry relative="1" as="geometry" />
        </mxCell>
        <mxCell id="9miJ6_X61tV17TmGhQe3-1" value="&lt;font style=&quot;color: rgb(255, 255, 255); font-size: 16px;&quot;&gt;Arduino UNO&lt;/font&gt;" style="rounded=0;whiteSpace=wrap;html=1;fillColor=#3333FF;strokeColor=#000000;" parent="1" vertex="1">
          <mxGeometry x="910" y="265" width="120" height="60" as="geometry" />
        </mxCell>
        <mxCell id="9miJ6_X61tV17TmGhQe3-2" value="&lt;font style=&quot;color: rgb(255, 255, 255); font-size: 14px;&quot;&gt;ESP32 Devkit&lt;/font&gt;" style="rounded=0;whiteSpace=wrap;html=1;fillColor=#4D4D4D;" parent="1" vertex="1">
          <mxGeometry x="680" y="265" width="120" height="60" as="geometry" />
        </mxCell>
        <mxCell id="Ibja5pGS4ZkIBvLENi_X-19" style="edgeStyle=orthogonalEdgeStyle;rounded=0;orthogonalLoop=1;jettySize=auto;html=1;entryX=0.5;entryY=0;entryDx=0;entryDy=0;" edge="1" parent="1" source="9miJ6_X61tV17TmGhQe3-4" target="9miJ6_X61tV17TmGhQe3-1">
          <mxGeometry relative="1" as="geometry" />
        </mxCell>
        <mxCell id="9miJ6_X61tV17TmGhQe3-4" value="Display 16x2" style="rounded=0;whiteSpace=wrap;html=1;" parent="1" vertex="1">
          <mxGeometry x="910" y="152" width="120" height="60" as="geometry" />
        </mxCell>
        <mxCell id="9miJ6_X61tV17TmGhQe3-8" value="" style="edgeStyle=orthogonalEdgeStyle;rounded=0;orthogonalLoop=1;jettySize=auto;html=1;" parent="1" source="9miJ6_X61tV17TmGhQe3-5" target="9miJ6_X61tV17TmGhQe3-1" edge="1">
          <mxGeometry x="-0.0667" y="-25" relative="1" as="geometry">
            <mxPoint as="offset" />
          </mxGeometry>
        </mxCell>
        <mxCell id="9miJ6_X61tV17TmGhQe3-5" value="LDR" style="rounded=0;whiteSpace=wrap;html=1;" parent="1" vertex="1">
          <mxGeometry x="1130" y="265" width="120" height="60" as="geometry" />
        </mxCell>
        <mxCell id="9miJ6_X61tV17TmGhQe3-10" style="edgeStyle=orthogonalEdgeStyle;rounded=0;orthogonalLoop=1;jettySize=auto;html=1;entryX=0.5;entryY=1;entryDx=0;entryDy=0;" parent="1" source="9miJ6_X61tV17TmGhQe3-6" target="9miJ6_X61tV17TmGhQe3-1" edge="1">
          <mxGeometry relative="1" as="geometry" />
        </mxCell>
        <mxCell id="9miJ6_X61tV17TmGhQe3-6" value="DHT22" style="rounded=0;whiteSpace=wrap;html=1;" parent="1" vertex="1">
          <mxGeometry x="910" y="380" width="120" height="60" as="geometry" />
        </mxCell>
        <mxCell id="9miJ6_X61tV17TmGhQe3-17" value="" style="rounded=0;whiteSpace=wrap;html=1;movable=1;resizable=1;rotatable=1;deletable=1;editable=1;locked=0;connectable=1;fillColor=#009900;" parent="1" vertex="1">
          <mxGeometry x="260" y="150" width="340" height="220" as="geometry" />
        </mxCell>
        <mxCell id="Ibja5pGS4ZkIBvLENi_X-12" style="edgeStyle=orthogonalEdgeStyle;rounded=0;orthogonalLoop=1;jettySize=auto;html=1;exitX=0.5;exitY=1;exitDx=0;exitDy=0;entryX=0.5;entryY=0;entryDx=0;entryDy=0;startArrow=classic;startFill=1;" edge="1" parent="1" source="9miJ6_X61tV17TmGhQe3-18" target="Ibja5pGS4ZkIBvLENi_X-10">
          <mxGeometry relative="1" as="geometry" />
        </mxCell>
        <mxCell id="Ibja5pGS4ZkIBvLENi_X-14" style="edgeStyle=orthogonalEdgeStyle;rounded=0;orthogonalLoop=1;jettySize=auto;html=1;exitX=1;exitY=0.5;exitDx=0;exitDy=0;entryX=0;entryY=0.5;entryDx=0;entryDy=0;startArrow=classic;startFill=1;" edge="1" parent="1" source="9miJ6_X61tV17TmGhQe3-18" target="9miJ6_X61tV17TmGhQe3-2">
          <mxGeometry relative="1" as="geometry" />
        </mxCell>
        <mxCell id="9miJ6_X61tV17TmGhQe3-18" value="BROKER MQTT&lt;br&gt;(MOSQUITTO)" style="rounded=0;whiteSpace=wrap;html=1;" parent="1" vertex="1">
          <mxGeometry x="450" y="265" width="120" height="60" as="geometry" />
        </mxCell>
        <mxCell id="9miJ6_X61tV17TmGhQe3-24" style="edgeStyle=orthogonalEdgeStyle;rounded=0;orthogonalLoop=1;jettySize=auto;html=1;entryX=0.5;entryY=0;entryDx=0;entryDy=0;" parent="1" source="9miJ6_X61tV17TmGhQe3-20" target="9miJ6_X61tV17TmGhQe3-21" edge="1">
          <mxGeometry relative="1" as="geometry" />
        </mxCell>
        <mxCell id="Ibja5pGS4ZkIBvLENi_X-13" style="edgeStyle=orthogonalEdgeStyle;rounded=0;orthogonalLoop=1;jettySize=auto;html=1;exitX=0.5;exitY=1;exitDx=0;exitDy=0;entryX=0.5;entryY=0;entryDx=0;entryDy=0;startArrow=classic;startFill=1;" edge="1" parent="1" source="9miJ6_X61tV17TmGhQe3-20" target="9miJ6_X61tV17TmGhQe3-18">
          <mxGeometry relative="1" as="geometry" />
        </mxCell>
        <mxCell id="9miJ6_X61tV17TmGhQe3-20" value="PONTE MQTT / OPCUA" style="rounded=0;whiteSpace=wrap;html=1;" parent="1" vertex="1">
          <mxGeometry x="450" y="175" width="120" height="60" as="geometry" />
        </mxCell>
        <mxCell id="Ibja5pGS4ZkIBvLENi_X-2" style="edgeStyle=orthogonalEdgeStyle;rounded=0;orthogonalLoop=1;jettySize=auto;html=1;exitX=0.5;exitY=1;exitDx=0;exitDy=0;entryX=0.5;entryY=0;entryDx=0;entryDy=0;startArrow=classic;startFill=1;" edge="1" parent="1" source="9miJ6_X61tV17TmGhQe3-21" target="Ibja5pGS4ZkIBvLENi_X-9">
          <mxGeometry relative="1" as="geometry">
            <mxPoint x="350" y="365" as="targetPoint" />
          </mxGeometry>
        </mxCell>
        <mxCell id="Ibja5pGS4ZkIBvLENi_X-4" value="&lt;font style=&quot;color: rgb(255, 255, 255);&quot;&gt;RaspberryPi&lt;/font&gt;" style="rounded=0;whiteSpace=wrap;html=1;fillColor=#009900;strokeColor=none;fontSize=16;" vertex="1" parent="1">
          <mxGeometry x="275" y="152" width="100" height="50" as="geometry" />
        </mxCell>
        <mxCell id="Ibja5pGS4ZkIBvLENi_X-6" value="&lt;font color=&quot;#ffffff&quot;&gt;Laptop&lt;/font&gt;" style="rounded=0;whiteSpace=wrap;html=1;fillColor=#F0A30A;strokeColor=none;fontSize=16;" vertex="1" parent="1">
          <mxGeometry x="275" y="480" width="100" height="50" as="geometry" />
        </mxCell>
        <mxCell id="Ibja5pGS4ZkIBvLENi_X-7" value="&lt;span style=&quot;font-size: 11px; text-wrap: nowrap; background-color: rgb(255, 255, 255);&quot;&gt;Leitura analógica&lt;/span&gt;" style="text;html=1;align=center;verticalAlign=middle;whiteSpace=wrap;rounded=0;" vertex="1" parent="1">
          <mxGeometry x="1030" y="265" width="100" height="30" as="geometry" />
        </mxCell>
        <mxCell id="Ibja5pGS4ZkIBvLENi_X-8" value="Leitura Digital" style="text;html=1;align=center;verticalAlign=middle;whiteSpace=wrap;rounded=0;" vertex="1" parent="1">
          <mxGeometry x="870" y="340" width="100" height="30" as="geometry" />
        </mxCell>
        <mxCell id="Ibja5pGS4ZkIBvLENi_X-9" value="Client OPCUA (UaExpert)" style="rounded=0;whiteSpace=wrap;html=1;" vertex="1" parent="1">
          <mxGeometry x="290" y="410" width="120" height="60" as="geometry" />
        </mxCell>
        <mxCell id="Ibja5pGS4ZkIBvLENi_X-10" value="Cliente MQTT (MQTTX)" style="rounded=0;whiteSpace=wrap;html=1;" vertex="1" parent="1">
          <mxGeometry x="450" y="410" width="120" height="60" as="geometry" />
        </mxCell>
        <mxCell id="9miJ6_X61tV17TmGhQe3-21" value="SERVER OPCUA" style="rounded=0;whiteSpace=wrap;html=1;" parent="1" vertex="1">
          <mxGeometry x="290" y="265" width="120" height="60" as="geometry" />
        </mxCell>
        <mxCell id="Ibja5pGS4ZkIBvLENi_X-15" value="MQTT / Wi-Fi" style="text;html=1;align=center;verticalAlign=middle;whiteSpace=wrap;rounded=0;" vertex="1" parent="1">
          <mxGeometry x="610" y="257.5" width="60" height="30" as="geometry" />
        </mxCell>
        <mxCell id="Ibja5pGS4ZkIBvLENi_X-17" value="I2C" style="text;html=1;align=center;verticalAlign=middle;whiteSpace=wrap;rounded=0;" vertex="1" parent="1">
          <mxGeometry x="940" y="220" width="100" height="30" as="geometry" />
        </mxCell>
        <mxCell id="Ibja5pGS4ZkIBvLENi_X-20" value="Software Serial" style="text;html=1;align=center;verticalAlign=middle;whiteSpace=wrap;rounded=0;" vertex="1" parent="1">
          <mxGeometry x="800" y="265" width="100" height="30" as="geometry" />
        </mxCell>
        <mxCell id="Ibja5pGS4ZkIBvLENi_X-22" value="ESP32 - Pinos" style="swimlane;fontStyle=0;childLayout=stackLayout;horizontal=1;startSize=30;horizontalStack=0;resizeParent=1;resizeParentMax=0;resizeLast=0;collapsible=1;marginBottom=0;whiteSpace=wrap;html=1;fillColor=#f5f5f5;gradientColor=#b3b3b3;strokeColor=#666666;" vertex="1" parent="1">
          <mxGeometry x="685" y="365" width="170" height="90" as="geometry" />
        </mxCell>
        <mxCell id="Ibja5pGS4ZkIBvLENi_X-23" value="Software Serial RX - 16" style="text;strokeColor=none;fillColor=none;align=left;verticalAlign=middle;spacingLeft=4;spacingRight=4;overflow=hidden;points=[[0,0.5],[1,0.5]];portConstraint=eastwest;rotatable=0;whiteSpace=wrap;html=1;" vertex="1" parent="Ibja5pGS4ZkIBvLENi_X-22">
          <mxGeometry y="30" width="170" height="30" as="geometry" />
        </mxCell>
        <mxCell id="Ibja5pGS4ZkIBvLENi_X-24" value="Software Serial TX - 17" style="text;strokeColor=none;fillColor=none;align=left;verticalAlign=middle;spacingLeft=4;spacingRight=4;overflow=hidden;points=[[0,0.5],[1,0.5]];portConstraint=eastwest;rotatable=0;whiteSpace=wrap;html=1;" vertex="1" parent="Ibja5pGS4ZkIBvLENi_X-22">
          <mxGeometry y="60" width="170" height="30" as="geometry" />
        </mxCell>
        <mxCell id="Ibja5pGS4ZkIBvLENi_X-31" style="edgeStyle=orthogonalEdgeStyle;rounded=0;orthogonalLoop=1;jettySize=auto;html=1;exitX=0.5;exitY=0;exitDx=0;exitDy=0;entryX=0.75;entryY=1;entryDx=0;entryDy=0;startArrow=none;startFill=0;fillColor=#e51400;strokeColor=#FF3333;endArrow=oval;endFill=1;strokeWidth=1.5;" edge="1" parent="1" source="Ibja5pGS4ZkIBvLENi_X-26" target="9miJ6_X61tV17TmGhQe3-1">
          <mxGeometry relative="1" as="geometry">
            <Array as="points">
              <mxPoint x="1190" y="340" />
              <mxPoint x="1000" y="340" />
            </Array>
          </mxGeometry>
        </mxCell>
        <mxCell id="Ibja5pGS4ZkIBvLENi_X-26" value="Arduino Uno - Pinos" style="swimlane;fontStyle=0;childLayout=stackLayout;horizontal=1;startSize=30;horizontalStack=0;resizeParent=1;resizeParentMax=0;resizeLast=0;collapsible=1;marginBottom=0;whiteSpace=wrap;html=1;fillColor=#f5f5f5;gradientColor=#b3b3b3;strokeColor=#666666;" vertex="1" parent="1">
          <mxGeometry x="1105" y="365" width="170" height="210" as="geometry" />
        </mxCell>
        <mxCell id="Ibja5pGS4ZkIBvLENi_X-27" value="Software Serial RX - 10" style="text;strokeColor=none;fillColor=none;align=left;verticalAlign=middle;spacingLeft=4;spacingRight=4;overflow=hidden;points=[[0,0.5],[1,0.5]];portConstraint=eastwest;rotatable=0;whiteSpace=wrap;html=1;" vertex="1" parent="Ibja5pGS4ZkIBvLENi_X-26">
          <mxGeometry y="30" width="170" height="30" as="geometry" />
        </mxCell>
        <mxCell id="Ibja5pGS4ZkIBvLENi_X-28" value="Software Serial TX - 11" style="text;strokeColor=none;fillColor=none;align=left;verticalAlign=middle;spacingLeft=4;spacingRight=4;overflow=hidden;points=[[0,0.5],[1,0.5]];portConstraint=eastwest;rotatable=0;whiteSpace=wrap;html=1;" vertex="1" parent="Ibja5pGS4ZkIBvLENi_X-26">
          <mxGeometry y="60" width="170" height="30" as="geometry" />
        </mxCell>
        <mxCell id="Ibja5pGS4ZkIBvLENi_X-29" value="Leitura Analógica LDR - A0" style="text;strokeColor=none;fillColor=none;align=left;verticalAlign=middle;spacingLeft=4;spacingRight=4;overflow=hidden;points=[[0,0.5],[1,0.5]];portConstraint=eastwest;rotatable=0;whiteSpace=wrap;html=1;" vertex="1" parent="Ibja5pGS4ZkIBvLENi_X-26">
          <mxGeometry y="90" width="170" height="30" as="geometry" />
        </mxCell>
        <mxCell id="Ibja5pGS4ZkIBvLENi_X-30" value="Leitura Digital DHT22 - D12" style="text;strokeColor=none;fillColor=none;align=left;verticalAlign=middle;spacingLeft=4;spacingRight=4;overflow=hidden;points=[[0,0.5],[1,0.5]];portConstraint=eastwest;rotatable=0;whiteSpace=wrap;html=1;" vertex="1" parent="Ibja5pGS4ZkIBvLENi_X-26">
          <mxGeometry y="120" width="170" height="30" as="geometry" />
        </mxCell>
        <mxCell id="Ibja5pGS4ZkIBvLENi_X-33" value="I2C SDA - A4" style="text;strokeColor=none;fillColor=none;align=left;verticalAlign=middle;spacingLeft=4;spacingRight=4;overflow=hidden;points=[[0,0.5],[1,0.5]];portConstraint=eastwest;rotatable=0;whiteSpace=wrap;html=1;" vertex="1" parent="Ibja5pGS4ZkIBvLENi_X-26">
          <mxGeometry y="150" width="170" height="30" as="geometry" />
        </mxCell>
        <mxCell id="Ibja5pGS4ZkIBvLENi_X-34" value="I2C SCL - A5" style="text;strokeColor=none;fillColor=none;align=left;verticalAlign=middle;spacingLeft=4;spacingRight=4;overflow=hidden;points=[[0,0.5],[1,0.5]];portConstraint=eastwest;rotatable=0;whiteSpace=wrap;html=1;" vertex="1" parent="Ibja5pGS4ZkIBvLENi_X-26">
          <mxGeometry y="180" width="170" height="30" as="geometry" />
        </mxCell>
        <mxCell id="Ibja5pGS4ZkIBvLENi_X-32" style="edgeStyle=orthogonalEdgeStyle;rounded=0;orthogonalLoop=1;jettySize=auto;html=1;exitX=0.75;exitY=1;exitDx=0;exitDy=0;startArrow=oval;startFill=1;endArrow=none;strokeColor=#FF3333;" edge="1" parent="1" source="9miJ6_X61tV17TmGhQe3-2" target="Ibja5pGS4ZkIBvLENi_X-22">
          <mxGeometry relative="1" as="geometry">
            <Array as="points">
              <mxPoint x="770" y="340" />
              <mxPoint x="770" y="340" />
            </Array>
          </mxGeometry>
        </mxCell>
        <mxCell id="Ibja5pGS4ZkIBvLENi_X-37" style="edgeStyle=orthogonalEdgeStyle;rounded=0;orthogonalLoop=1;jettySize=auto;html=1;exitX=0.5;exitY=1;exitDx=0;exitDy=0;entryX=0.5;entryY=0;entryDx=0;entryDy=0;endArrow=none;startFill=0;fillColor=#dae8fc;gradientColor=#7ea6e0;strokeColor=#0000CC;strokeWidth=1.5;" edge="1" parent="1" source="Ibja5pGS4ZkIBvLENi_X-35" target="Ibja5pGS4ZkIBvLENi_X-15">
          <mxGeometry relative="1" as="geometry" />
        </mxCell>
        <mxCell id="Ibja5pGS4ZkIBvLENi_X-35" value="Tópico de escrita: &lt;b&gt;/device/sensores/&lt;/b&gt;&lt;br&gt;Tópico de entrada: &lt;b&gt;/device/display/&lt;/b&gt;" style="rounded=0;whiteSpace=wrap;html=1;strokeColor=#0000CC;" vertex="1" parent="1">
          <mxGeometry x="645" y="130" width="210" height="60" as="geometry" />
        </mxCell>
      </root>
    </mxGraphModel>
  </diagram>
</mxfile>
